# xmcd
#
# Track frame offsets: 
#        150
#        3785
#        23832
#        44280
#        64255
#        100765
#        121627
#        146570
#        160912
#        190840
#        203920
#        227890
#        252475
#        278370
#        299335
#
# Disc length: 4237 seconds
#
# Revision: 0
# Processed by: cddbd v1.5.2PL0 Copyright (c) Steve Scherf et al.
# Submitted via: ExactAudioCopy v0.99pb5
#
DISCID=ca108b0f
DTITLE=Led Jaxson Blues Band - Somethin' 'bout That Woman
DYEAR=1995
DGENRE=Blues
TTITLE0=Harpin' Again
TTITLE1=Somethin' 'bout That Woman
TTITLE2=Watch Out Baby
TTITLE3=Guard Your Heart
TTITLE4=Standin' Here Crying
TTITLE5=Love Boat Boogie
TTITLE6=Who's Been Talkin'
TTITLE7=Thunderbird Wine
TTITLE8=Wise Up (I'm Trouble)
TTITLE9=Sideswiped
TTITLE10=Come Back To Me
TTITLE11=Heart Of A Fool
TTITLE12=Gotta Move
TTITLE13=Get It Straight
TTITLE14=Riding High
EXTD=
EXTT0=
EXTT1=
EXTT2=
EXTT3=
EXTT4=
EXTT5=
EXTT6=
EXTT7=
EXTT8=
EXTT9=
EXTT10=
EXTT11=
EXTT12=
EXTT13=
EXTT14=
PLAYORDER=
